<?xml version="1.0" encoding="UTF-8"?>
<svg width="208px" height="249px" viewBox="0 0 208 249" version="1.1" xmlns="http://www.w3.org/2000/svg" xmlns:xlink="http://www.w3.org/1999/xlink">
    <!-- Generator: Sketch 39.1 (31720) - http://www.bohemiancoding.com/sketch -->
    <title>shopping-bag</title>
    <desc>Created with Sketch.</desc>
    <defs></defs>
    <g id="Page-1" stroke="none" stroke-width="1" fill="none" fill-rule="evenodd">
        <g id="shopping-bag" fill="#000000">
            <path d="M51.641,52.281 L51.641,61.32 L8.039,61.32 C3.641,61.32 0.121,64.84 0.121,69.238 L0.121,208.199 C0.121,230.68 18.359,248.918 40.84,248.918 L166.359,248.918 C188.84,248.918 207.078,230.68 207.078,208.199 L207.078,69.238 C207.078,64.84 203.559,61.32 199.16,61.32 L155.559,61.32 L155.559,52.281 C155.559,23.641 132.281,0.281 103.559,0.281 C74.922,0.36 51.641,23.641 51.641,52.281 L51.641,52.281 Z M147.641,104.762 C152.039,104.762 155.559,101.238 155.559,96.84 L155.559,77.16 L191.238,77.16 L191.238,208.199 C191.238,221.961 180.039,233.078 166.359,233.078 L40.84,233.078 C27.078,233.078 15.961,221.879 15.961,208.199 L15.961,77.16 L51.641,77.16 L51.641,96.84 C51.641,101.238 55.16,104.762 59.559,104.762 C63.961,104.762 67.48,101.238 67.48,96.84 L67.48,77.16 L139.719,77.16 L139.719,96.84 C139.719,101.238 143.238,104.762 147.641,104.762 L147.641,104.762 Z M139.719,52.281 L139.719,61.32 L67.48,61.32 L67.48,52.281 C67.48,32.36 83.719,16.121 103.641,16.121 C123.48,16.199 139.719,32.36 139.719,52.281 L139.719,52.281 Z" id="Fill-4"></path>
        </g>
    </g>
</svg>